<?xml version="1.0" encoding="UTF-8" standalone="no"?>
<svg
   width="250"
   height="173"
   viewBox="0 0 250 173"
   fill="none"
   version="1.1"
   id="svg17"
   sodipodi:docname="card_white.svg"
   inkscape:version="1.4.2 (ebf0e940d0, 2025-05-08)"
   xmlns:inkscape="http://www.inkscape.org/namespaces/inkscape"
   xmlns:sodipodi="http://sodipodi.sourceforge.net/DTD/sodipodi-0.dtd"
   xmlns="http://www.w3.org/2000/svg"
   xmlns:svg="http://www.w3.org/2000/svg">
  <sodipodi:namedview
     id="namedview17"
     pagecolor="#ffffff"
     bordercolor="#000000"
     borderopacity="0.25"
     inkscape:showpageshadow="2"
     inkscape:pageopacity="0.0"
     inkscape:pagecheckerboard="0"
     inkscape:deskcolor="#d1d1d1"
     inkscape:zoom="2.3985062"
     inkscape:cx="69.418207"
     inkscape:cy="68.792818"
     inkscape:window-width="1874"
     inkscape:window-height="983"
     inkscape:window-x="0"
     inkscape:window-y="0"
     inkscape:window-maximized="1"
     inkscape:current-layer="g12" />
  <g
     filter="url(#filter0_d_144_1253)"
     id="g12">
    <rect
       x="4.47784"
       y="0.0668945"
       width="241.118"
       height="164.094"
       rx="15"
       fill="#1E1E1E"
       shape-rendering="crispEdges"
       id="rect1"
       style="fill:#ffffff;fill-opacity:1" />
    <g
       clip-path="url(#clip0_144_1253)"
       id="g1">
      <path
         d="M29.3977 37.0669C28.1662 37.0669 26.9795 37.5328 26.072 38.3725C25.1645 39.2123 24.6022 40.3648 24.4961 41.6025H28.2821C28.3764 41.6022 28.4677 41.6359 28.5396 41.6975L33.6939 46.1343H38.5858V37.0669H29.3977ZM39.3776 37.0669V46.1343H44.2695L49.4152 41.7053C49.4867 41.642 49.5785 41.6069 49.6736 41.6064H53.4596C53.3544 40.368 52.7925 39.2145 51.8849 38.374C50.9773 37.5334 49.7901 37.067 48.558 37.0669H39.3776ZM24.4778 42.4013V50.6651L33.149 50.6553V46.7129L28.137 42.4012L24.4778 42.4013ZM49.8187 42.4052L44.8144 46.7169V50.6554L53.4778 50.6652V42.4053L49.8187 42.4052ZM33.9408 46.9331V51.0548V55.1765H44.0226V51.0548V46.9331H38.9817H33.9408ZM33.149 51.4542L24.4778 51.4619V59.7043H28.1293L33.149 55.3849V51.4542ZM44.8144 51.4542V55.3849L49.8255 59.7044H53.4778V51.4619L44.8144 51.4542ZM33.6794 55.9753L28.5329 60.4082C28.461 60.4698 28.3696 60.5035 28.2753 60.5031H24.4942C24.5937 61.7462 25.1534 62.9059 26.062 63.7516C26.9706 64.5972 28.1614 65.0668 29.3977 65.0669H38.5858V55.9753L33.6794 55.9753ZM39.3776 55.9753V65.0669H48.558C49.7943 65.0668 50.9851 64.5972 51.8937 63.7516C52.8023 62.9059 53.362 61.7462 53.4615 60.5032H49.6804C49.5861 60.5035 49.4947 60.4698 49.4229 60.4082L44.2762 55.9753L39.3776 55.9753Z"
         fill="#E8DA8D"
         id="path1" />
    </g>
    <g
       clip-path="url(#clip1_144_1253)"
       id="g4">
      <path
         d="M225.596 25.3729C225.596 23.17 224.7 21.0574 223.106 19.4997C221.512 17.942 219.35 17.0669 217.096 17.0669C215.98 17.0668 214.875 17.2816 213.843 17.699C212.812 18.1163 211.875 18.7281 211.086 19.4994C210.296 20.2707 209.67 21.1864 209.243 22.1942C208.816 23.2019 208.596 24.2821 208.596 25.3729C208.596 27.2612 209.254 29.093 210.463 30.5665C211.259 29.5952 212.269 28.8113 213.417 28.2725C214.565 27.7338 215.823 27.4541 217.096 27.4542C217.459 27.4543 217.821 27.477 218.181 27.5224C220.363 27.7969 222.352 28.8881 223.729 30.5665C224.937 29.093 225.596 27.2612 225.596 25.3729Z"
         fill="#FEA203"
         id="path2" />
      <path
         d="M223.729 30.5665C222.932 29.5953 221.923 28.8114 220.775 28.2727C219.627 27.734 218.37 27.4543 217.096 27.4542C215.823 27.4541 214.565 27.7338 213.417 28.2725C212.269 28.8113 211.259 29.5952 210.463 30.5665C211.259 31.5378 212.269 32.3218 213.417 32.8605C214.565 33.3992 215.823 33.6789 217.096 33.6789C218.37 33.6788 219.627 33.3991 220.775 32.8604C221.923 32.3216 222.932 31.5377 223.729 30.5665Z"
         fill="#FC6804"
         id="path3" />
      <path
         d="M225.596 35.7602C225.596 33.8719 224.937 32.04 223.729 30.5665C222.932 31.5377 221.923 32.3216 220.775 32.8604C219.627 33.3991 218.37 33.6788 217.096 33.6789C215.823 33.6789 214.565 33.3992 213.417 32.8605C212.269 32.3218 211.259 31.5378 210.463 30.5665C209.254 32.04 208.596 33.8719 208.596 35.7602C208.596 36.851 208.815 37.9313 209.243 38.9391C209.67 39.947 210.296 40.8627 211.085 41.6341C211.875 42.4055 212.812 43.0173 213.843 43.4348C214.874 43.8522 215.98 44.067 217.096 44.0669C218.212 44.0669 219.318 43.852 220.349 43.4345C221.38 43.0171 222.317 42.4052 223.107 41.6338C223.896 40.8625 224.522 39.9468 224.949 38.9389C225.376 37.9311 225.596 36.851 225.596 35.7602Z"
         fill="#D40000"
         id="path4" />
    </g>
    <g
       clip-path="url(#clip2_144_1253)"
       id="g10">
      <path
         d="M24.5327 136.632C24.4961 136.828 24.4777 137.027 24.4778 137.227C24.478 138.969 25.8553 140.382 27.5543 140.382H27.5581C29.2556 140.38 30.6306 138.968 30.6307 137.227C30.6279 137.026 30.6317 136.817 30.6307 136.632L27.5543 136.632H24.5327Z"
         fill="#FC6804"
         id="path5" />
      <path
         d="M30.6307 136.632C30.6324 136.819 30.629 137.027 30.6305 137.227C30.6304 138.968 29.2555 140.38 27.5579 140.382H32.9595C33.7374 140.382 34.4834 140.065 35.0335 139.501C35.5835 138.937 35.8925 138.172 35.8925 137.374V136.632L30.6307 136.632Z"
         fill="#FEA203"
         id="path6" />
      <path
         d="M30.6307 135.04H35.8925V137.414C35.8925 138.201 35.5876 138.956 35.0448 139.512C34.5019 140.069 33.7657 140.382 32.9981 140.382H30.6307V135.04Z"
         fill="#FEA203"
         id="path7" />
      <path
         d="M36.5445 145.569C36.5811 145.373 36.5994 145.173 36.5993 144.974C36.5992 143.231 35.2219 141.819 33.5228 141.819H33.519C31.8215 141.821 30.4465 143.233 30.4464 144.974C30.4492 145.174 30.4454 145.383 30.4464 145.569L33.5229 145.569H36.5445Z"
         fill="#FC6804"
         id="path8" />
      <path
         d="M30.4464 145.569C30.4447 145.382 30.4481 145.174 30.4466 144.974C30.4467 143.233 31.8216 141.821 33.5192 141.819H28.1176C27.3397 141.819 26.5937 142.136 26.0436 142.7C25.4936 143.264 25.1846 144.029 25.1846 144.827V145.569L30.4464 145.569Z"
         fill="#FEA203"
         id="path9" />
      <path
         d="M30.4464 147.161H25.1846V144.787C25.1846 144 25.4895 143.245 26.0324 142.688C26.5752 142.132 27.3114 141.819 28.0791 141.819H30.4464V147.161Z"
         fill="#FEA203"
         id="path10" />
    </g>
    <g
       clip-path="url(#clip3_144_1253)"
       id="g11"
       style="fill:#262626;fill-opacity:1">
      <path
         d="M43.4547 147.033C37.4313 145.935 37.3772 136.991 43.3861 135.691C50.7231 134.103 53.6821 144.047 46.7149 146.877C46.1976 147.088 44.2623 147.18 43.4547 147.033ZM45.8271 144.554C48.4508 143.76 48.7727 139.612 46.3069 138.371C43.9696 137.196 41.5867 138.718 41.5867 141.387C41.5867 143.765 43.5604 145.239 45.8271 144.554ZM55.3183 147.034C51.2784 146.168 50.6793 140.5 54.4406 138.73C56.7099 137.663 59.7164 138.753 60.5244 140.936L60.7855 141.642L59.552 141.681L58.3185 141.721L58.0655 141.371C56.9078 139.767 54.4167 140.698 54.4062 142.739C54.396 144.717 57.0289 145.68 58.0691 144.077L58.2773 143.757H59.5401H60.803L60.6035 144.327C59.8972 146.348 57.6015 147.523 55.3183 147.034ZM65.0313 146.964C61.2449 145.889 60.7605 140.545 64.289 138.775L65.0737 138.382L66.3581 138.377C68.9375 138.367 70.5969 139.854 70.7834 142.343L70.8587 143.347H67.6473H64.436L64.5288 143.723C64.8254 144.922 67.9805 145.554 67.9805 144.414C67.9805 144.353 68.5625 144.303 69.274 144.303H70.5675L70.473 144.61C69.9194 146.409 67.209 147.582 65.0313 146.964ZM68.2509 141.672C68.2509 140.189 65.0756 140.134 64.5577 141.608L64.4738 141.846H66.3623C67.8047 141.846 68.2509 141.805 68.2509 141.672ZM75.0784 147.04C71.3176 146.112 70.8887 140.482 74.4471 138.755C76.6943 137.664 79.6155 138.643 80.5764 140.81L80.885 141.505L80.9345 144.2L80.984 146.895H79.8901H78.7963V146.281C78.7963 145.527 78.7901 145.527 78.0843 146.267C77.3077 147.081 76.2967 147.341 75.0784 147.04ZM77.6866 144.486C79.2763 143.31 78.4584 140.617 76.5118 140.619C74.4218 140.621 73.6628 143.452 75.4489 144.584C76.0086 144.939 77.1414 144.889 77.6866 144.486ZM97.3861 147.079C94.3405 146.582 92.3414 143.886 92.6514 140.694C93.2452 134.578 102.116 133.585 104.151 139.406L104.337 139.936H102.941H101.546L101.188 139.391C99.1752 136.321 94.3172 138.804 95.4229 142.338C96.2483 144.976 99.9546 145.578 101.184 143.273L101.436 142.802H102.889H104.343L104.194 143.177C103.644 144.561 103.149 145.271 102.28 145.924C101.039 146.856 98.9884 147.34 97.3861 147.079ZM108.608 147.049C106.583 146.515 105.51 145.046 105.507 142.802L105.505 141.505L105.899 140.713C106.717 139.068 107.895 138.393 109.96 138.386C113.375 138.374 114.631 140.203 114.411 144.866L114.316 146.895H113.26H112.204L112.164 146.179L112.123 145.462L111.825 145.945C111.274 146.84 109.771 147.355 108.608 147.049ZM110.926 144.625C112.238 143.997 112.238 141.47 110.926 140.842C109.473 140.146 107.965 141.061 107.941 142.653C107.916 144.316 109.452 145.331 110.926 144.625ZM128.045 147.024C125.505 146.518 124.036 143.838 124.815 141.134C125.561 138.543 128.891 137.45 130.814 139.166L131.118 139.438V137.094V134.751H132.344H133.571L133.527 139.356L133.484 143.961L133.103 144.712C132.139 146.611 130.266 147.467 128.045 147.024ZM130.301 144.491C131.875 143.154 131.082 140.619 129.09 140.619C127.182 140.619 126.317 143.07 127.759 144.388C128.417 144.988 129.656 145.039 130.301 144.491ZM82.8626 144.064C82.8691 142.26 82.9304 141.075 83.0316 140.798C83.3571 139.907 84.0112 139.166 84.8315 138.76L85.6239 138.367L86.9082 138.372C90.1067 138.383 90.9506 139.553 91.0646 144.132L91.1334 146.895H89.8996H88.6658V144.704C88.6658 141.392 88.3366 140.618 86.9279 140.618C85.5026 140.618 85.2859 141.113 85.2859 144.364V146.895H84.0691H82.8523L82.8626 144.064ZM116.246 144.123C116.246 139.451 116.963 138.362 120.032 138.371C122.24 138.377 123.334 139.29 123.665 141.405L123.777 142.119H122.513H121.249V141.704C121.249 141.072 120.725 140.617 120.004 140.623C118.795 140.632 118.68 140.944 118.68 144.225V146.895H117.463H116.246V144.123Z"
         fill="white"
         id="path11"
         style="fill:#262626;fill-opacity:1" />
    </g>
  </g>
  <defs
     id="defs17">
    <filter
       id="filter0_d_144_1253"
       x="0.477844"
       y="0.0668945"
       width="249.118"
       height="172.094"
       filterUnits="userSpaceOnUse"
       color-interpolation-filters="sRGB">
      <feFlood
         flood-opacity="0"
         result="BackgroundImageFix"
         id="feFlood12" />
      <feColorMatrix
         in="SourceAlpha"
         type="matrix"
         values="0 0 0 0 0 0 0 0 0 0 0 0 0 0 0 0 0 0 127 0"
         result="hardAlpha"
         id="feColorMatrix12" />
      <feOffset
         dy="4"
         id="feOffset12" />
      <feGaussianBlur
         stdDeviation="2"
         id="feGaussianBlur12" />
      <feComposite
         in2="hardAlpha"
         operator="out"
         id="feComposite12" />
      <feColorMatrix
         type="matrix"
         values="0 0 0 0 0 0 0 0 0 0 0 0 0 0 0 0 0 0 0.25 0"
         id="feColorMatrix13" />
      <feBlend
         mode="normal"
         in2="BackgroundImageFix"
         result="effect1_dropShadow_144_1253"
         id="feBlend13" />
      <feBlend
         mode="normal"
         in="SourceGraphic"
         in2="effect1_dropShadow_144_1253"
         result="shape"
         id="feBlend14" />
    </filter>
    <clipPath
       id="clip0_144_1253">
      <rect
         width="29"
         height="48"
         fill="white"
         transform="translate(24.4778 17.0669)"
         id="rect14" />
    </clipPath>
    <clipPath
       id="clip1_144_1253">
      <rect
         width="27"
         height="17"
         fill="white"
         transform="translate(225.596 17.0669) rotate(90)"
         id="rect15" />
    </clipPath>
    <clipPath
       id="clip2_144_1253">
      <rect
         width="12.1214"
         height="12.1214"
         fill="white"
         transform="translate(24.4778 135.04)"
         id="rect16" />
    </clipPath>
    <clipPath
       id="clip3_144_1253">
      <rect
         width="94.6627"
         height="12.4101"
         fill="white"
         transform="translate(38.9081 134.751)"
         id="rect17" />
    </clipPath>
  </defs>
</svg>
