<svg width="250" height="173" viewBox="0 0 250 173" fill="none" xmlns="http://www.w3.org/2000/svg">
<g filter="url(#filter0_d_144_1222)">
<rect x="4" width="241.118" height="164.094" rx="15" fill="#FEA203" shape-rendering="crispEdges"/>
<g clip-path="url(#clip0_144_1222)">
<path d="M28.9198 37C27.6884 37 26.5017 37.4659 25.5942 38.3056C24.6866 39.1454 24.1243 40.2979 24.0183 41.5356H27.8042C27.8985 41.5353 27.9899 41.569 28.0617 41.6306L33.216 46.0674H38.108V37H28.9198ZM38.8997 37V46.0674H43.7917L48.9373 41.6384C49.0089 41.5751 49.1006 41.54 49.1958 41.5395H52.9817C52.8766 40.3011 52.3147 39.1476 51.4071 38.3071C50.4995 37.4665 49.3123 37.0001 48.0802 37H38.8997ZM24 42.3344V50.5982L32.6712 50.5884V46.646L27.6591 42.3343L24 42.3344ZM49.3409 42.3383L44.3365 46.65V50.5885L53 50.5983V42.3384L49.3409 42.3383ZM33.463 46.8662V50.9879V55.1096H43.5447V50.9879V46.8662H38.5038H33.463ZM32.6712 51.3873L24 51.395V59.6374H27.6514L32.6712 55.318V51.3873ZM44.3365 51.3873V55.318L49.3476 59.6375H53V51.395L44.3365 51.3873ZM33.2016 55.9084L28.055 60.3413C27.9831 60.4029 27.8918 60.4366 27.7975 60.4363H24.0163C24.1158 61.6793 24.6755 62.839 25.5841 63.6847C26.4927 64.5303 27.6836 64.9999 28.9198 65H38.108V55.9084L33.2016 55.9084ZM38.8997 55.9084V65H48.0802C49.3164 64.9999 50.5073 64.5303 51.4159 63.6847C52.3245 62.839 52.8842 61.6793 52.9837 60.4363H49.2025C49.1082 60.4366 49.0169 60.4029 48.945 60.3413L43.7984 55.9084L38.8997 55.9084Z" fill="#E8DA8D"/>
</g>
<g clip-path="url(#clip1_144_1222)">
<path d="M225.118 25.306C225.118 23.1031 224.222 20.9905 222.628 19.4328C221.034 17.8751 218.873 17 216.618 17C215.502 16.9999 214.397 17.2147 213.365 17.6321C212.334 18.0494 211.397 18.6612 210.608 19.4325C209.818 20.2038 209.192 21.1195 208.765 22.1273C208.338 23.135 208.118 24.2152 208.118 25.306C208.118 27.1943 208.777 29.0261 209.985 30.4996C210.781 29.5283 211.791 28.7444 212.939 28.2056C214.087 27.6669 215.345 27.3872 216.618 27.3873C216.981 27.3874 217.343 27.4102 217.703 27.4555C219.886 27.73 221.874 28.8212 223.251 30.4996C224.459 29.0261 225.118 27.1943 225.118 25.306Z" fill="#FEA203" stroke="white" stroke-width="0.1"/>
<path d="M223.251 30.4996C222.454 29.5284 221.445 28.7445 220.297 28.2058C219.149 27.6671 217.892 27.3874 216.618 27.3873C215.345 27.3872 214.087 27.6669 212.939 28.2056C211.791 28.7444 210.781 29.5283 209.985 30.4996C210.781 31.4709 211.791 32.2549 212.939 32.7936C214.087 33.3323 215.345 33.612 216.618 33.612C217.892 33.6119 219.149 33.3322 220.297 32.7935C221.445 32.2547 222.454 31.4708 223.251 30.4996Z" fill="#FC6804" stroke="white" stroke-width="0.1"/>
<path d="M225.118 35.6933C225.118 33.805 224.459 31.9731 223.251 30.4996C222.454 31.4708 221.445 32.2547 220.297 32.7935C219.149 33.3322 217.892 33.6119 216.618 33.612C215.345 33.612 214.087 33.3323 212.939 32.7936C211.791 32.2549 210.781 31.4709 209.985 30.4996C208.777 31.9731 208.118 33.805 208.118 35.6933C208.118 36.7841 208.338 37.8644 208.765 38.8722C209.192 39.8801 209.818 40.7958 210.607 41.5672C211.397 42.3386 212.334 42.9504 213.365 43.3679C214.397 43.7853 215.502 44.0001 216.618 44C217.735 44 218.84 43.7851 219.871 43.3677C220.902 42.9502 221.839 42.3383 222.629 41.5669C223.418 40.7956 224.044 39.8799 224.471 38.872C224.898 37.8642 225.118 36.7841 225.118 35.6933Z" fill="#D40000" stroke="white" stroke-width="0.1"/>
</g>
<g clip-path="url(#clip2_144_1222)">
<path d="M24.0548 136.565C24.0182 136.761 23.9999 136.96 24 137.16C24.0001 138.902 25.3774 140.315 27.0764 140.315H27.0803C28.7778 140.313 30.1527 138.901 30.1529 137.16C30.15 136.96 30.1538 136.75 30.1529 136.565L27.0764 136.565H24.0548Z" fill="#565151"/>
<path d="M30.1528 136.565C30.1546 136.752 30.1511 136.96 30.1527 137.16C30.1526 138.901 28.7776 140.313 27.0801 140.315H32.4817C33.2595 140.315 34.0056 139.998 34.5556 139.434C35.1057 138.87 35.4147 138.105 35.4147 137.307V136.565L30.1528 136.565Z" fill="#1E1E1E"/>
<path d="M30.1529 134.973H35.4147V137.347C35.4147 138.134 35.1097 138.889 34.5669 139.446C34.0241 140.002 33.2879 140.315 32.5202 140.315H30.1529V134.973Z" fill="#1E1E1E"/>
<path d="M36.0666 145.502C36.1032 145.306 36.1216 145.106 36.1214 144.907C36.1213 143.164 34.744 141.752 33.045 141.752H33.0411C31.3436 141.754 29.9687 143.166 29.9686 144.907C29.9714 145.107 29.9676 145.317 29.9686 145.502L33.045 145.502H36.0666Z" fill="#1E1E1E"/>
<path d="M29.9686 145.502C29.9668 145.315 29.9703 145.107 29.9687 144.907C29.9688 143.166 31.3438 141.754 33.0413 141.752H27.6397C26.8619 141.752 26.1158 142.069 25.5658 142.633C25.0157 143.197 24.7067 143.962 24.7067 144.76V145.502L29.9686 145.502Z" fill="#565151"/>
<path d="M29.9686 147.094H24.7067V144.72C24.7067 143.933 25.0117 143.178 25.5545 142.621C26.0973 142.065 26.8335 141.752 27.6012 141.752H29.9686V147.094Z" fill="#565151"/>
</g>
<g clip-path="url(#clip3_144_1222)">
<path d="M42.9769 146.966C36.9534 145.868 36.8993 136.925 42.9083 135.624C50.2453 134.036 53.2043 143.98 46.2371 146.811C45.7197 147.021 43.7845 147.113 42.9769 146.966ZM45.3492 144.487C47.9729 143.693 48.2949 139.545 45.829 138.305C43.4918 137.129 41.1089 138.652 41.1089 141.321C41.1089 143.698 43.0826 145.172 45.3492 144.487ZM54.8404 146.967C50.8006 146.101 50.2014 140.433 53.9628 138.663C56.232 137.596 59.2386 138.686 60.0465 140.869L60.3077 141.575L59.0741 141.615L57.8406 141.654L57.5876 141.304C56.43 139.7 53.9389 140.631 53.9284 142.672C53.9182 144.651 56.5511 145.613 57.5912 144.011L57.7994 143.69H59.0623H60.3251L60.1257 144.26C59.4194 146.281 57.1236 147.457 54.8404 146.967ZM64.5534 146.897C60.7671 145.822 60.2826 140.478 63.8111 138.708L64.5959 138.315L65.8802 138.31C68.4597 138.3 70.1191 139.788 70.3056 142.276L70.3808 143.28H67.1695H63.9581L64.0509 143.656C64.3475 144.855 67.5026 145.487 67.5026 144.347C67.5026 144.286 68.0847 144.236 68.7961 144.236H70.0896L69.9952 144.543C69.4415 146.342 66.7311 147.515 64.5534 146.897ZM67.773 141.605C67.773 140.122 64.5977 140.067 64.0799 141.541L63.9959 141.78H65.8845C67.3269 141.78 67.773 141.738 67.773 141.605ZM74.6005 146.973C70.8398 146.045 70.4108 140.415 73.9692 138.688C76.2164 137.597 79.1376 138.576 80.0986 140.743L80.4072 141.438L80.4566 144.133L80.5061 146.828H79.4123H78.3185V146.214C78.3185 145.46 78.3123 145.46 77.6064 146.2C76.8299 147.014 75.8189 147.274 74.6005 146.973ZM77.2087 144.419C78.7985 143.243 77.9805 140.55 76.0339 140.552C73.944 140.554 73.185 143.385 74.9711 144.517C75.5308 144.872 76.6636 144.822 77.2087 144.419ZM96.9083 147.012C93.8627 146.516 91.8635 143.82 92.1735 140.627C92.7673 134.511 101.639 133.518 103.674 139.339L103.859 139.869H102.463H101.068L100.71 139.324C98.6974 136.254 93.8393 138.737 94.945 142.271C95.7704 144.909 99.4767 145.511 100.706 143.206L100.958 142.735H102.412H103.865L103.716 143.11C103.166 144.494 102.671 145.204 101.802 145.857C100.561 146.789 98.5106 147.273 96.9083 147.012ZM108.13 146.982C106.105 146.449 105.032 144.979 105.029 142.735L105.027 141.438L105.421 140.646C106.239 139.001 107.417 138.326 109.482 138.319C112.897 138.308 114.153 140.136 113.934 144.799L113.838 146.828H112.782H111.727L111.686 146.112L111.645 145.395L111.347 145.878C110.796 146.773 109.293 147.288 108.13 146.982ZM110.448 144.558C111.76 143.93 111.76 141.403 110.448 140.775C108.995 140.079 107.487 140.994 107.463 142.586C107.438 144.249 108.974 145.264 110.448 144.558ZM127.567 146.957C125.028 146.451 123.558 143.771 124.337 141.067C125.083 138.476 128.413 137.383 130.336 139.099L130.64 139.371V137.028V134.684H131.867H133.093L133.05 139.289L133.006 143.895L132.625 144.645C131.661 146.544 129.788 147.4 127.567 146.957ZM129.824 144.424C131.397 143.087 130.604 140.552 128.612 140.552C126.704 140.552 125.839 143.003 127.281 144.321C127.939 144.922 129.178 144.972 129.824 144.424ZM82.3847 143.997C82.3913 142.193 82.4526 141.008 82.5537 140.731C82.8793 139.84 83.5333 139.099 84.3537 138.693L85.146 138.3L86.4304 138.305C89.6289 138.317 90.4728 139.486 90.5868 144.065L90.6556 146.828H89.4218H88.188V144.637C88.188 141.325 87.8588 140.551 86.4501 140.551C85.0248 140.551 84.808 141.046 84.808 144.297V146.828H83.5912H82.3744L82.3847 143.997ZM115.768 144.056C115.768 139.384 116.485 138.295 119.554 138.304C121.763 138.31 122.856 139.223 123.187 141.338L123.299 142.052H122.035H120.771V141.637C120.771 141.005 120.247 140.55 119.526 140.556C118.317 140.565 118.202 140.877 118.202 144.158V146.828H116.985H115.768V144.056Z" fill="#1E1E1E"/>
</g>
</g>
<defs>
<filter id="filter0_d_144_1222" x="0" y="0" width="249.118" height="172.094" filterUnits="userSpaceOnUse" color-interpolation-filters="sRGB">
<feFlood flood-opacity="0" result="BackgroundImageFix"/>
<feColorMatrix in="SourceAlpha" type="matrix" values="0 0 0 0 0 0 0 0 0 0 0 0 0 0 0 0 0 0 127 0" result="hardAlpha"/>
<feOffset dy="4"/>
<feGaussianBlur stdDeviation="2"/>
<feComposite in2="hardAlpha" operator="out"/>
<feColorMatrix type="matrix" values="0 0 0 0 0 0 0 0 0 0 0 0 0 0 0 0 0 0 0.25 0"/>
<feBlend mode="normal" in2="BackgroundImageFix" result="effect1_dropShadow_144_1222"/>
<feBlend mode="normal" in="SourceGraphic" in2="effect1_dropShadow_144_1222" result="shape"/>
</filter>
<clipPath id="clip0_144_1222">
<rect width="29" height="48" fill="white" transform="translate(24 17)"/>
</clipPath>
<clipPath id="clip1_144_1222">
<rect width="27" height="17" fill="white" transform="translate(225.118 17) rotate(90)"/>
</clipPath>
<clipPath id="clip2_144_1222">
<rect width="12.1214" height="12.1214" fill="white" transform="translate(24 134.973)"/>
</clipPath>
<clipPath id="clip3_144_1222">
<rect width="94.6627" height="12.4101" fill="white" transform="translate(38.4303 134.684)"/>
</clipPath>
</defs>
</svg>
