<svg width="198" height="23" viewBox="0 0 198 23" fill="none" xmlns="http://www.w3.org/2000/svg">
<g clip-path="url(#clip0_45_13962)">
<path d="M0.598965 3.96737C0.53289 4.32155 0.499749 4.68136 0.499994 5.04196C0.500189 8.18827 2.98732 10.7388 6.05541 10.739H6.06236C9.12774 10.7349 11.6106 8.18549 11.6108 5.04196C11.6057 4.67981 11.6126 4.30195 11.6108 3.96733L6.05538 3.96737H0.598965Z" fill="#FC6804"/>
<path d="M11.6108 3.96737C11.6139 4.30536 11.6077 4.68056 11.6105 5.04192C11.6103 8.18544 9.1274 10.7348 6.06202 10.739H15.8162C17.2209 10.739 18.5681 10.1667 19.5613 9.14813C20.5546 8.12954 21.1126 6.74803 21.1126 5.30752V3.96733L11.6108 3.96737Z" fill="#FEA203"/>
<path d="M11.6108 1.09201H21.1126V5.37892C21.1126 6.80049 20.5619 8.16384 19.5817 9.16904C18.6015 10.1742 17.272 10.739 15.8858 10.739H11.6108V1.09201Z" fill="#FEA203"/>
<path d="M22.2899 20.1055C22.356 19.7513 22.3891 19.3915 22.3889 19.0309C22.3887 15.8846 19.9015 13.3341 16.8335 13.3339H16.8265C13.7611 13.338 11.2783 15.8874 11.2781 19.0309C11.2831 19.3931 11.2763 19.7709 11.2781 20.1056L16.8335 20.1055H22.2899Z" fill="#FC6804"/>
<path d="M11.278 20.1055C11.2749 19.7675 11.2811 19.3923 11.2783 19.031C11.2785 15.8874 13.7614 13.3381 16.8268 13.3339H7.07266C5.66797 13.3339 4.32078 13.9062 3.32751 14.9248C2.33424 15.9433 1.77623 17.3249 1.77623 18.7654V20.1056L11.278 20.1055Z" fill="#FEA203"/>
<path d="M11.2781 22.9809H1.77627V18.694C1.77627 17.2724 2.32694 15.9091 3.30715 14.9039C4.28737 13.8987 5.61683 13.3339 7.00306 13.3339H11.2781L11.2781 22.9809Z" fill="#FEA203"/>
</g>
<g clip-path="url(#clip1_45_13962)">
<path d="M34.7684 22.7489C23.8912 20.7662 23.7936 4.61672 34.6445 2.26806C47.8936 -0.5997 53.237 17.3568 40.6557 22.4689C39.7214 22.8485 36.2267 23.0147 34.7684 22.7489ZM39.0524 18.2723C43.7902 16.8396 44.3717 9.34818 39.9188 7.10868C35.6982 4.98595 31.3952 7.73536 31.3952 12.5549C31.3952 16.8487 34.9593 19.5099 39.0524 18.2723ZM56.1916 22.7517C48.8965 21.1882 47.8145 10.9517 54.6067 7.75686C58.7046 5.82936 64.1337 7.79778 65.5927 11.74L66.0643 13.0142L63.8368 13.0858L61.6093 13.1574L61.1525 12.5245C59.062 9.62817 54.5635 11.3103 54.5446 14.9954C54.5262 18.5682 59.2807 20.3057 61.1589 17.4126L61.535 16.8334H63.8154H66.0958L65.7356 17.8637C64.4602 21.5122 60.3146 23.6354 56.1916 22.7517ZM73.7313 22.6246C66.8939 20.6839 66.0191 11.0336 72.3909 7.83813L73.8079 7.12748L76.1272 7.11871C80.7852 7.10112 83.7817 9.78664 84.1185 14.2806L84.2544 16.0942H78.4554H72.6563L72.8239 16.7718C73.3595 18.9376 79.0569 20.0783 79.0569 18.0198C79.0569 17.9094 80.108 17.819 81.3927 17.819H83.7285L83.558 18.3734C82.5582 21.6233 77.6638 23.7407 73.7313 22.6246ZM79.5452 13.069C79.5452 10.3912 73.8113 10.2911 72.8761 12.9526L72.7246 13.3838H76.1349C78.7395 13.3838 79.5452 13.3094 79.5452 13.069ZM91.8743 22.7623C85.0832 21.0863 84.3085 10.9202 90.7343 7.80081C94.7923 5.83085 100.067 7.5993 101.803 11.5114L102.36 12.7678L102.449 17.6342L102.539 22.5007H100.563H98.5882V21.3919C98.5882 20.0306 98.577 20.0304 97.3024 21.3661C95.9001 22.8357 94.0744 23.3053 91.8743 22.7623ZM96.5842 18.15C99.455 16.0262 97.978 11.1642 94.4628 11.1671C90.6887 11.1702 89.3181 16.2837 92.5435 18.3278C93.5541 18.9683 95.5998 18.8783 96.5842 18.15ZM132.158 22.8324C126.658 21.9362 123.048 17.0677 123.608 11.302C124.68 0.25839 140.7 -1.53549 144.374 8.97655L144.709 9.93415H142.189H139.669L139.024 8.95006C135.388 3.40606 126.616 7.89033 128.612 14.2719C130.103 19.0356 136.796 20.1219 139.016 15.9605L139.471 15.1086H142.096H144.72L144.451 15.7862C143.458 18.2853 142.564 19.5685 140.995 20.7471C138.754 22.4302 135.051 23.3039 132.158 22.8324ZM152.421 22.7784C148.765 21.8151 146.828 19.1621 146.822 15.1086L146.818 12.7678L147.53 11.3376C149.007 8.36696 151.134 7.14801 154.863 7.13524C161.03 7.11413 163.299 10.4164 162.902 18.8372L162.729 22.5007H160.823H158.917L158.843 21.2071L158.769 19.9135L158.232 20.7853C157.236 22.4008 154.522 23.3318 152.421 22.7784ZM156.608 18.4011C158.977 17.2666 158.977 12.7042 156.608 11.5697C153.984 10.3131 151.261 11.9654 151.218 14.84C151.172 17.8433 153.946 19.6759 156.608 18.4011ZM187.521 22.7337C182.935 21.8204 180.281 16.9806 181.688 12.0973C183.036 7.41763 189.049 5.44534 192.521 8.54417L193.071 9.03444V4.80264V0.570847H195.285H197.5L197.422 8.88694L197.343 17.203L196.655 18.5582C194.914 21.9868 191.532 23.5326 187.521 22.7337ZM191.596 18.1593C194.438 15.7457 193.006 11.168 189.409 11.168C185.963 11.168 184.4 15.5928 187.005 17.9725C188.193 19.0576 190.431 19.1487 191.596 18.1593ZM105.931 17.3878C105.943 14.1301 106.054 11.9903 106.236 11.4904C106.824 9.88124 108.005 8.54371 109.487 7.80958L110.917 7.10052L113.237 7.10909C119.013 7.13043 120.536 9.24232 120.742 17.511L120.867 22.5007H118.639H116.411V18.5442C116.411 12.5636 115.816 11.1662 113.272 11.1662C110.698 11.1662 110.307 12.059 110.307 17.93V22.5007H108.11H105.912L105.931 17.3878ZM166.215 17.4942C166.215 9.05809 167.51 7.09127 173.051 7.10717C177.039 7.1186 179.014 8.76757 179.612 12.5858L179.814 13.8766H177.531H175.249V13.1262C175.249 11.9854 174.303 11.1643 173.001 11.174C170.817 11.1903 170.61 11.7544 170.61 17.6796V22.5007H168.413H166.215V17.4942Z" fill="black"/>
</g>
<defs>
<clipPath id="clip0_45_13962">
<rect width="21.8889" height="21.8889" fill="white" transform="translate(0.5 1.09201)"/>
</clipPath>
<clipPath id="clip1_45_13962">
<rect width="170.942" height="22.4101" fill="white" transform="translate(26.5582 0.570847)"/>
</clipPath>
</defs>
</svg>
