<svg width="310" height="311" viewBox="0 0 310 311" fill="none" xmlns="http://www.w3.org/2000/svg">
<circle cx="155" cy="155.981" r="155" fill="#D9D9D9"/>
<g filter="url(#filter0_d_45_13981)">
<rect x="10" y="121.072" width="241.118" height="164.094" rx="15" fill="#FEA203" shape-rendering="crispEdges"/>
<g clip-path="url(#clip0_45_13981)">
<path d="M34.9198 158.072C33.6884 158.072 32.5017 158.537 31.5942 159.377C30.6866 160.217 30.1243 161.37 30.0183 162.607H33.8042C33.8985 162.607 33.9899 162.641 34.0617 162.702L39.216 167.139H44.108V158.072H34.9198ZM44.8997 158.072V167.139H49.7917L54.9373 162.71C55.0089 162.647 55.1006 162.612 55.1958 162.611H58.9817C58.8766 161.373 58.3147 160.219 57.4071 159.379C56.4995 158.538 55.3123 158.072 54.0802 158.072H44.8997ZM30 163.406V171.67L38.6712 171.66V167.718L33.6591 163.406L30 163.406ZM55.3409 163.41L50.3365 167.722V171.66L59 171.67V163.41L55.3409 163.41ZM39.463 167.938V172.059V176.181H49.5447V172.059V167.938H44.5038H39.463ZM38.6712 172.459L30 172.467V180.709H33.6514L38.6712 176.39V172.459ZM50.3365 172.459V176.39L55.3476 180.709H59V172.467L50.3365 172.459ZM39.2016 176.98L34.055 181.413C33.9831 181.474 33.8918 181.508 33.7975 181.508H30.0163C30.1158 182.751 30.6755 183.911 31.5841 184.756C32.4927 185.602 33.6836 186.071 34.9198 186.072H44.108V176.98L39.2016 176.98ZM44.8997 176.98V186.072H54.0802C55.3164 186.071 56.5073 185.602 57.4159 184.756C58.3245 183.911 58.8842 182.751 58.9837 181.508H55.2025C55.1082 181.508 55.0169 181.474 54.945 181.413L49.7984 176.98L44.8997 176.98Z" fill="#E8DA8D"/>
</g>
<g clip-path="url(#clip1_45_13981)">
<path d="M231.118 146.378C231.118 144.175 230.222 142.062 228.628 140.504C227.034 138.947 224.873 138.072 222.618 138.072C221.502 138.072 220.397 138.286 219.365 138.704C218.334 139.121 217.397 139.733 216.608 140.504C215.818 141.275 215.192 142.191 214.765 143.199C214.338 144.207 214.118 145.287 214.118 146.378C214.118 148.266 214.777 150.098 215.985 151.571C216.781 150.6 217.791 149.816 218.939 149.277C220.087 148.739 221.345 148.459 222.618 148.459C222.981 148.459 223.343 148.482 223.703 148.527C225.886 148.802 227.874 149.893 229.251 151.571C230.459 150.098 231.118 148.266 231.118 146.378Z" fill="#FEA203" stroke="white" stroke-width="0.1"/>
<path d="M229.251 151.571C228.454 150.6 227.445 149.816 226.297 149.277C225.149 148.739 223.892 148.459 222.618 148.459C221.345 148.459 220.087 148.738 218.939 149.277C217.791 149.816 216.781 150.6 215.985 151.571C216.781 152.542 217.791 153.326 218.939 153.865C220.087 154.404 221.345 154.684 222.618 154.684C223.892 154.683 225.149 154.404 226.297 153.865C227.445 153.326 228.454 152.542 229.251 151.571Z" fill="#FC6804" stroke="white" stroke-width="0.1"/>
<path d="M231.118 156.765C231.118 154.877 230.459 153.045 229.251 151.571C228.454 152.542 227.445 153.326 226.297 153.865C225.149 154.404 223.892 154.683 222.618 154.684C221.345 154.684 220.087 154.404 218.939 153.865C217.791 153.326 216.781 152.542 215.985 151.571C214.777 153.045 214.118 154.877 214.118 156.765C214.118 157.856 214.338 158.936 214.765 159.944C215.192 160.952 215.818 161.867 216.607 162.639C217.397 163.41 218.334 164.022 219.365 164.439C220.397 164.857 221.502 165.072 222.618 165.072C223.735 165.072 224.84 164.857 225.871 164.439C226.902 164.022 227.839 163.41 228.629 162.639C229.418 161.867 230.044 160.951 230.471 159.944C230.898 158.936 231.118 157.856 231.118 156.765Z" fill="#D40000" stroke="white" stroke-width="0.1"/>
</g>
<g clip-path="url(#clip2_45_13981)">
<path d="M30.0548 257.637C30.0182 257.833 29.9999 258.032 30 258.232C30.0001 259.974 31.3774 261.386 33.0764 261.386H33.0803C34.7778 261.384 36.1527 259.972 36.1529 258.232C36.15 258.031 36.1538 257.822 36.1529 257.637L33.0764 257.637H30.0548Z" fill="#565151"/>
<path d="M36.1528 257.637C36.1546 257.824 36.1511 258.032 36.1527 258.232C36.1526 259.972 34.7776 261.384 33.0801 261.386H38.4817C39.2596 261.386 40.0056 261.07 40.5556 260.506C41.1057 259.941 41.4147 259.176 41.4147 258.379V257.637L36.1528 257.637Z" fill="#1E1E1E"/>
<path d="M36.1528 256.044H41.4147V258.418C41.4147 259.205 41.1097 259.96 40.5669 260.517C40.0241 261.074 39.2879 261.386 38.5202 261.386H36.1528V256.044Z" fill="#1E1E1E"/>
<path d="M42.0666 266.573C42.1032 266.377 42.1216 266.178 42.1214 265.978C42.1213 264.236 40.744 262.824 39.045 262.823H39.0412C37.3436 262.826 35.9687 264.238 35.9686 265.978C35.9714 266.179 35.9676 266.388 35.9686 266.573L39.045 266.573H42.0666Z" fill="#1E1E1E"/>
<path d="M35.9686 266.573C35.9669 266.386 35.9703 266.178 35.9687 265.978C35.9688 264.238 37.3438 262.826 39.0413 262.823H33.6398C32.8619 262.823 32.1158 263.14 31.5658 263.704C31.0157 264.269 30.7067 265.034 30.7067 265.831V266.573L35.9686 266.573Z" fill="#565151"/>
<path d="M35.9686 268.166H30.7068V265.792C30.7068 265.005 31.0117 264.25 31.5545 263.693C32.0973 263.136 32.8335 262.823 33.6012 262.823H35.9686V268.166Z" fill="#565151"/>
</g>
<g clip-path="url(#clip3_45_13981)">
<path d="M48.9769 268.037C42.9534 266.939 42.8993 257.996 48.9082 256.696C56.2453 255.107 59.2043 265.051 52.2371 267.882C51.7197 268.092 49.7845 268.184 48.9769 268.037ZM51.3492 265.558C53.9729 264.765 54.2949 260.616 51.829 259.376C49.4918 258.201 47.1089 259.723 47.1089 262.392C47.1089 264.77 49.0826 266.244 51.3492 265.558ZM60.8404 268.039C56.8006 267.173 56.2014 261.504 59.9628 259.735C62.232 258.668 65.2385 259.758 66.0465 261.941L66.3076 262.646L65.0741 262.686L63.8406 262.726L63.5876 262.375C62.43 260.771 59.9389 261.703 59.9284 263.744C59.9182 265.722 62.5511 266.684 63.5912 265.082L63.7994 264.761H65.0623H66.3251L66.1257 265.332C65.4193 267.352 63.1236 268.528 60.8404 268.039ZM70.5534 267.968C66.7671 266.894 66.2826 261.55 69.8111 259.78L70.5958 259.387L71.8802 259.382C74.4597 259.372 76.1191 260.859 76.3055 263.348L76.3808 264.352H73.1695H69.9581L70.0509 264.727C70.3475 265.927 73.5026 266.558 73.5026 265.418C73.5026 265.357 74.0847 265.307 74.7961 265.307H76.0896L75.9952 265.614C75.4415 267.414 72.7311 268.586 70.5534 267.968ZM73.773 262.677C73.773 261.194 70.5977 261.138 70.0798 262.612L69.9959 262.851H71.8845C73.3268 262.851 73.773 262.81 73.773 262.677ZM80.6005 268.045C76.8398 267.117 76.4108 261.487 79.9692 259.759C82.2164 258.668 85.1376 259.648 86.0986 261.814L86.4072 262.51L86.4566 265.205L86.5061 267.9H85.4123H84.3185V267.286C84.3185 266.532 84.3123 266.532 83.6064 267.271C82.8299 268.085 81.8189 268.345 80.6005 268.045ZM83.2087 265.49C84.7985 264.314 83.9805 261.622 82.0339 261.624C79.944 261.625 79.185 264.457 80.9711 265.589C81.5307 265.944 82.6636 265.894 83.2087 265.49ZM102.908 268.083C99.8627 267.587 97.8635 264.891 98.1735 261.698C98.7673 255.583 107.639 254.589 109.674 260.41L109.859 260.941H108.463H107.068L106.71 260.396C104.697 257.326 99.8393 259.809 100.945 263.343C101.77 265.981 105.477 266.582 106.706 264.278L106.958 263.806H108.412H109.865L109.716 264.181C109.166 265.565 108.671 266.276 107.802 266.929C106.561 267.861 104.511 268.345 102.908 268.083ZM114.13 268.054C112.105 267.52 111.032 266.051 111.029 263.806L111.027 262.51L111.421 261.718C112.239 260.073 113.417 259.398 115.482 259.391C118.897 259.379 120.153 261.208 119.934 265.871L119.838 267.9H118.782H117.727L117.686 267.183L117.645 266.467L117.347 266.95C116.796 267.844 115.293 268.36 114.13 268.054ZM116.448 265.63C117.76 265.001 117.76 262.475 116.448 261.846C114.995 261.151 113.487 262.066 113.463 263.657C113.438 265.321 114.974 266.335 116.448 265.63ZM133.567 268.029C131.028 267.523 129.558 264.843 130.337 262.139C131.083 259.547 134.413 258.455 136.336 260.171L136.64 260.443V258.099V255.756H137.867H139.093L139.05 260.361L139.006 264.966L138.625 265.717C137.661 267.615 135.788 268.471 133.567 268.029ZM135.824 265.496C137.397 264.159 136.604 261.624 134.612 261.624C132.704 261.624 131.839 264.074 133.281 265.392C133.939 265.993 135.178 266.044 135.824 265.496ZM88.3847 265.068C88.3913 263.264 88.4526 262.079 88.5537 261.803C88.8792 260.911 89.5333 260.171 90.3537 259.764L91.146 259.372L92.4304 259.376C95.6289 259.388 96.4727 260.558 96.5868 265.137L96.6556 267.9H95.4218H94.188V265.709C94.188 262.397 93.8588 261.623 92.4501 261.623C91.0248 261.623 90.808 262.117 90.808 265.369V267.9H89.5912H88.3744L88.3847 265.068ZM121.768 265.127C121.768 260.456 122.485 259.366 125.554 259.375C127.763 259.382 128.856 260.295 129.187 262.409L129.299 263.124H128.035H126.771V262.708C126.771 262.077 126.247 261.622 125.526 261.627C124.317 261.636 124.202 261.949 124.202 265.23V267.9H122.985H121.768V265.127Z" fill="#1E1E1E"/>
</g>
</g>
<g filter="url(#filter1_d_45_13981)">
<rect x="62.4779" y="25.9809" width="241.118" height="164.094" rx="15" transform="rotate(9.11739 62.4779 25.9809)" fill="#1E1E1E" shape-rendering="crispEdges"/>
<g clip-path="url(#clip4_45_13981)">
<path d="M81.2199 66.4622C80.004 66.267 78.7585 66.539 77.7294 67.2243C76.7003 67.9097 75.9624 68.9586 75.6616 70.1638L79.3997 70.7637C79.4929 70.7783 79.5777 70.8261 79.6389 70.8983L84.0251 76.0958L88.8552 76.8709L90.292 67.9181L81.2199 66.4622ZM91.0738 68.0436L89.637 76.9964L94.4671 77.7716L100.25 74.2139C100.33 74.1628 100.426 74.1426 100.52 74.1572L104.259 74.7571C104.351 73.5177 103.979 72.2898 103.216 71.316C102.453 70.3422 101.355 69.6936 100.138 69.4983L91.0738 68.0436ZM75.517 70.9496L74.2075 79.109L82.7707 80.4733L83.3954 76.5808L79.1299 71.5293L75.517 70.9496ZM100.537 74.9689L94.9127 78.4332L94.2886 82.3219L102.841 83.7044L104.15 75.5488L100.537 74.9689ZM84.1423 76.9236L83.4892 80.9933L82.8361 85.0629L92.7905 86.6604L93.4436 82.5908L94.0967 78.5212L89.1195 77.7224L84.1423 76.9236ZM82.6441 81.2621L74.0813 79.8957L72.7752 88.034L76.3805 88.6126L82.0213 85.1431L82.6441 81.2621ZM94.1621 83.1106L93.5392 86.9917L97.8026 92.0506L101.409 92.6294L102.715 84.491L94.1621 83.1106ZM82.4514 85.8101L76.6674 89.3715C76.5867 89.421 76.4912 89.4398 76.3981 89.4245L72.6648 88.8253C72.566 90.0684 72.9349 91.3022 73.698 92.2811C74.4611 93.2601 75.5625 93.9124 76.7831 94.1084L85.8552 95.5643L87.2958 86.5876L82.4514 85.8101ZM88.0776 86.7131L86.6369 95.6898L95.7014 97.1445C96.922 97.3403 98.1723 97.0654 99.2034 96.3744C100.234 95.6834 100.971 94.627 101.266 93.4154L97.5327 92.8163C97.4395 92.8017 97.3547 92.7539 97.2935 92.6817L92.9144 87.4893L88.0776 86.7131Z" fill="#E8DA8D"/>
</g>
<g clip-path="url(#clip5_45_13981)">
<path d="M276.792 86.0051C277.141 83.83 276.592 81.6022 275.265 79.8116C273.938 78.021 271.942 76.8144 269.716 76.4572C268.614 76.2802 267.489 76.3171 266.404 76.5658C265.32 76.8145 264.298 77.2701 263.396 77.9066C262.494 78.543 261.731 79.3479 261.15 80.2753C260.568 81.2026 260.18 82.2342 260.007 83.3113C259.708 85.1757 260.068 87.0888 261.028 88.7352C261.968 87.9023 263.089 87.2882 264.308 86.9383C265.527 86.5883 266.813 86.5114 268.07 86.7132C268.428 86.7708 268.782 86.8507 269.13 86.9524C271.242 87.5693 273.033 88.9619 274.126 90.8372C275.552 89.5738 276.493 87.8695 276.792 86.0051Z" fill="#FEA203"/>
<path d="M274.126 90.8372C273.493 89.7521 272.621 88.8181 271.573 88.1043C270.525 87.3905 269.328 86.9151 268.07 86.7132C266.813 86.5113 265.527 86.5883 264.308 86.9382C263.089 87.2882 261.968 87.9023 261.028 88.7351C261.66 89.8203 262.533 90.7544 263.581 91.4682C264.629 92.1821 265.826 92.6575 267.084 92.8593C268.341 93.061 269.627 92.984 270.846 92.634C272.065 92.284 273.186 91.6699 274.126 90.8372Z" fill="#FC6804"/>
<path d="M275.146 96.2611C275.445 94.3966 275.085 92.4835 274.126 90.8372C273.186 91.6699 272.065 92.284 270.846 92.634C269.627 92.984 268.341 93.061 267.084 92.8593C265.826 92.6575 264.629 92.1821 263.581 91.4682C262.533 90.7544 261.66 89.8203 261.028 88.7351C259.601 89.9985 258.66 91.7029 258.361 93.5673C258.188 94.6444 258.234 95.7458 258.496 96.8086C258.758 97.8714 259.231 98.8748 259.888 99.7615C260.545 100.648 261.374 101.401 262.326 101.976C263.278 102.552 264.336 102.939 265.438 103.116C266.54 103.293 267.665 103.256 268.75 103.007C269.834 102.758 270.856 102.303 271.758 101.666C272.659 101.03 273.423 100.225 274.004 99.2972C274.585 98.3698 274.974 97.3381 275.146 96.2611Z" fill="#D40000"/>
</g>
<g clip-path="url(#clip6_45_13981)">
<path d="M60.6395 163.998C60.5723 164.186 60.5226 164.38 60.4911 164.577C60.2151 166.298 61.3512 167.91 63.0288 168.18L63.0326 168.18C64.709 168.447 66.2903 167.271 66.5662 165.552C66.5953 165.354 66.6322 165.148 66.6605 164.965L63.623 164.477L60.6395 163.998Z" fill="#FC6804"/>
<path d="M66.6605 164.965C66.6326 165.15 66.5963 165.354 66.5661 165.552C66.2901 167.271 64.7088 168.447 63.0324 168.18L68.3657 169.036C69.1338 169.159 69.9206 168.965 70.5531 168.495C71.1856 168.025 71.6119 167.319 71.7383 166.531L71.8559 165.798L66.6605 164.965Z" fill="#FEA203"/>
<path d="M66.9128 163.392L72.1082 164.226L71.732 166.57C71.6073 167.347 71.1866 168.045 70.5624 168.508C69.9382 168.972 69.1618 169.164 68.4038 169.042L66.0663 168.667L66.9128 163.392Z" fill="#FEA203"/>
<path d="M71.0835 174.726C71.1507 174.538 71.2004 174.344 71.2319 174.147C71.5079 172.426 70.3718 170.814 68.6942 170.544L68.6904 170.544C67.014 170.277 65.4327 171.453 65.1568 173.172C65.1278 173.37 65.0909 173.576 65.0625 173.759L68.1 174.247L71.0835 174.726Z" fill="#FC6804"/>
<path d="M65.0625 173.759C65.0904 173.574 65.1268 173.37 65.1569 173.172C65.4329 171.453 67.0142 170.277 68.6906 170.544L63.3573 169.688C62.5892 169.565 61.8024 169.759 61.1699 170.229C60.5375 170.699 60.1111 171.405 59.9847 172.193L59.8671 172.926L65.0625 173.759Z" fill="#FEA203"/>
<path d="M64.8102 175.332L59.6148 174.498L59.991 172.154C60.1157 171.377 60.5365 170.679 61.1606 170.216C61.7848 169.752 62.5613 169.56 63.3192 169.682L65.6567 170.057L64.8102 175.332Z" fill="#FEA203"/>
</g>
<g clip-path="url(#clip7_45_13981)">
<path d="M77.6745 177.266C71.9011 175.227 73.2648 166.389 79.4039 166.057C86.8999 165.651 88.2458 175.938 80.9181 177.629C80.3739 177.755 78.4485 177.539 77.6745 177.266ZM80.4097 175.194C83.1259 174.827 84.1012 170.781 81.863 169.166C79.7415 167.635 77.1475 168.761 76.7246 171.396C76.3478 173.744 78.0631 175.512 80.4097 175.194ZM89.3879 179.147C85.5363 177.652 85.843 171.96 89.8371 170.809C92.2469 170.115 95.0426 171.668 95.4945 173.951L95.6405 174.689L94.4163 174.533L93.1921 174.377L92.9978 173.991C92.109 172.224 89.5017 172.749 89.168 174.762C88.8444 176.714 91.2916 178.081 92.5724 176.664L92.8288 176.38L94.0757 176.58L95.3226 176.78L95.0353 177.312C94.0177 179.195 91.5647 179.992 89.3879 179.147ZM98.9893 180.617C95.4211 178.956 95.7896 173.603 99.5539 172.414L100.391 172.15L101.66 172.349C104.208 172.748 105.611 174.479 105.401 176.966L105.316 177.97L102.145 177.461L98.9746 176.952L99.0068 177.337C99.1095 178.568 102.125 179.692 102.305 178.566C102.315 178.506 102.898 178.549 103.6 178.662L104.877 178.867L104.735 179.155C103.904 180.844 101.042 181.572 98.9893 180.617ZM103.007 175.902C103.242 174.438 100.115 173.88 99.3704 175.253L99.2498 175.476L101.114 175.775C102.539 176.004 102.986 176.034 103.007 175.902ZM108.897 182.284C105.331 180.772 105.8 175.145 109.587 174.004C111.979 173.283 114.708 174.712 115.313 177.004L115.508 177.74L115.13 180.408L114.751 183.077L113.671 182.904L112.591 182.73L112.689 182.124C112.808 181.38 112.802 181.379 111.988 181.997C111.092 182.678 110.053 182.774 108.897 182.284ZM111.877 180.176C113.633 179.266 113.252 176.478 111.33 176.171C109.266 175.842 108.068 178.518 109.652 179.918C110.149 180.357 111.275 180.487 111.877 180.176ZM130.917 185.857C127.989 184.885 126.442 181.906 127.254 178.803C128.809 172.858 137.726 173.283 138.813 179.353L138.912 179.906L137.534 179.685L136.156 179.464L135.889 178.869C134.388 175.519 129.198 177.201 129.73 180.866C130.127 183.601 133.691 184.782 135.27 182.702L135.594 182.276L137.029 182.506L138.464 182.737L138.257 183.084C137.495 184.363 136.893 184.986 135.932 185.493C134.559 186.216 132.458 186.369 130.917 185.857ZM142.002 187.606C140.087 186.758 139.261 185.138 139.613 182.921L139.816 181.641L140.331 180.921C141.399 179.427 142.669 178.947 144.709 179.267C148.083 179.797 149.034 181.801 148.078 186.371L147.662 188.359L146.62 188.191L145.577 188.024L145.651 187.31L145.724 186.597L145.353 187.026C144.667 187.822 143.102 188.093 142.002 187.606ZM144.675 185.58C146.07 185.168 146.47 182.673 145.274 181.845C143.95 180.927 142.316 181.592 142.04 183.16C141.752 184.798 143.108 186.043 144.675 185.58ZM161.197 190.662C158.77 189.76 157.744 186.881 158.941 184.334C160.089 181.894 163.55 181.343 165.176 183.342L165.434 183.658L165.805 181.344L166.176 179.03L167.387 179.225L168.598 179.419L167.826 183.959L167.053 188.499L166.558 189.18C165.305 190.902 163.32 191.45 161.197 190.662ZM163.827 188.518C165.592 187.448 165.211 184.819 163.244 184.503C161.36 184.201 160.117 186.483 161.333 188.013C161.887 188.711 163.103 188.957 163.827 188.518ZM117.055 180.579C117.347 178.799 117.596 177.639 117.739 177.381C118.202 176.553 118.965 175.925 119.839 175.654L120.684 175.392L121.951 175.6C125.108 176.119 125.755 177.407 125.142 181.946L124.773 184.685L123.554 184.49L122.336 184.294L122.683 182.131C123.208 178.861 123.006 178.045 121.615 177.821C120.208 177.596 119.915 178.049 119.4 181.26L118.999 183.759L117.797 183.566L116.596 183.373L117.055 180.579ZM150.007 185.927C150.748 181.315 151.628 180.353 154.657 180.848C156.836 181.204 157.771 182.279 157.763 184.419L157.76 185.142L156.512 184.942L155.264 184.742L155.33 184.332C155.43 183.708 154.985 183.176 154.272 183.067C153.077 182.884 152.914 183.174 152.394 186.414L151.971 189.05L150.77 188.857L149.568 188.665L150.007 185.927Z" fill="white"/>
</g>
</g>
<defs>
<filter id="filter0_d_45_13981" x="6" y="121.072" width="249.118" height="172.094" filterUnits="userSpaceOnUse" color-interpolation-filters="sRGB">
<feFlood flood-opacity="0" result="BackgroundImageFix"/>
<feColorMatrix in="SourceAlpha" type="matrix" values="0 0 0 0 0 0 0 0 0 0 0 0 0 0 0 0 0 0 127 0" result="hardAlpha"/>
<feOffset dy="4"/>
<feGaussianBlur stdDeviation="2"/>
<feComposite in2="hardAlpha" operator="out"/>
<feColorMatrix type="matrix" values="0 0 0 0 0 0 0 0 0 0 0 0 0 0 0 0 0 0 0.25 0"/>
<feBlend mode="normal" in2="BackgroundImageFix" result="effect1_dropShadow_45_13981"/>
<feBlend mode="normal" in="SourceGraphic" in2="effect1_dropShadow_45_13981" result="shape"/>
</filter>
<filter id="filter1_d_45_13981" x="32.4759" y="25.9809" width="272.074" height="208.228" filterUnits="userSpaceOnUse" color-interpolation-filters="sRGB">
<feFlood flood-opacity="0" result="BackgroundImageFix"/>
<feColorMatrix in="SourceAlpha" type="matrix" values="0 0 0 0 0 0 0 0 0 0 0 0 0 0 0 0 0 0 127 0" result="hardAlpha"/>
<feOffset dy="4"/>
<feGaussianBlur stdDeviation="2"/>
<feComposite in2="hardAlpha" operator="out"/>
<feColorMatrix type="matrix" values="0 0 0 0 0 0 0 0 0 0 0 0 0 0 0 0 0 0 0.25 0"/>
<feBlend mode="normal" in2="BackgroundImageFix" result="effect1_dropShadow_45_13981"/>
<feBlend mode="normal" in="SourceGraphic" in2="effect1_dropShadow_45_13981" result="shape"/>
</filter>
<clipPath id="clip0_45_13981">
<rect width="29" height="48" fill="white" transform="translate(30 138.072)"/>
</clipPath>
<clipPath id="clip1_45_13981">
<rect width="27" height="17" fill="white" transform="translate(231.118 138.072) rotate(90)"/>
</clipPath>
<clipPath id="clip2_45_13981">
<rect width="12.1214" height="12.1214" fill="white" transform="translate(30 256.044)"/>
</clipPath>
<clipPath id="clip3_45_13981">
<rect width="94.6627" height="12.4101" fill="white" transform="translate(44.4303 255.756)"/>
</clipPath>
<clipPath id="clip4_45_13981">
<rect width="29" height="48" fill="white" transform="translate(79.5314 45.9353) rotate(9.11739)"/>
</clipPath>
<clipPath id="clip5_45_13981">
<rect width="27" height="17" fill="white" transform="translate(278.108 77.804) rotate(99.1174)"/>
</clipPath>
<clipPath id="clip6_45_13981">
<rect width="12.1214" height="12.1214" fill="white" transform="translate(60.8377 162.417) rotate(9.11739)"/>
</clipPath>
<clipPath id="clip7_45_13981">
<rect width="94.6627" height="12.4101" fill="white" transform="translate(75.1314 164.419) rotate(9.11739)"/>
</clipPath>
</defs>
</svg>
